<svg width="24" height="18" viewBox="0 0 16 18" fill="none" xmlns="http://www.w3.org/2000/svg">
<path fill-rule="evenodd" clip-rule="evenodd" d="M8 2C6.34315 2 5 3.34315 5 5C5 6.65685 6.34315 8 8 8C9.65685 8 11 6.65685 11 5C11 3.34315 9.65685 2 8 2ZM4 5C4 2.79086 5.79086 1 8 1C10.2091 1 12 2.79086 12 5C12 7.03981 10.4732 8.723 8.5 8.96905V14.5C8.5 14.7761 8.27614 15 8 15C7.72386 15 7.5 14.7761 7.5 14.5V8.96905C5.52684 8.723 4 7.03981 4 5ZM6.49328 13.5742C6.53841 13.8467 6.35414 14.1041 6.08171 14.1492C5.37026 14.2671 4.80258 14.4439 4.42743 14.6415C4.23962 14.7405 4.1222 14.8332 4.05719 14.9069C4.02598 14.9422 4.01158 14.9679 4.00527 14.9824C4.00219 14.9895 4.00098 14.9941 4.00049 14.9963C4.00003 14.9984 4 15 4 15C4 15 3.99995 15.0025 4.00153 15.0077C4.00322 15.0132 4.00741 15.0243 4.01754 15.0407C4.03876 15.0753 4.08204 15.1273 4.16312 15.1912C4.32821 15.3213 4.59808 15.4603 4.97613 15.5863C5.72701 15.8366 6.79615 16 8 16C9.20386 16 10.273 15.8366 11.0239 15.5863C11.4019 15.4603 11.6718 15.3213 11.8369 15.1912C11.918 15.1273 11.9612 15.0753 11.9825 15.0407C11.9926 15.0243 11.9968 15.0132 11.9985 15.0077C12 15.0026 12 15.0001 12 15.0001C12 15.0001 12 14.9984 11.9995 14.9963C11.999 14.9941 11.9978 14.9895 11.9947 14.9824C11.9884 14.9679 11.974 14.9422 11.9428 14.9069C11.8778 14.8332 11.7604 14.7405 11.5726 14.6415C11.1974 14.4439 10.6297 14.2671 9.91829 14.1492C9.64586 14.1041 9.46159 13.8467 9.50672 13.5742C9.55185 13.3018 9.80928 13.1175 10.0817 13.1627C10.852 13.2903 11.5343 13.491 12.0387 13.7568C12.5009 14.0003 13 14.4014 13 15C13 15.426 12.7406 15.7522 12.4559 15.9766C12.1655 16.2054 11.7764 16.3896 11.3401 16.535C10.4623 16.8276 9.28143 17 8 17C6.71857 17 5.53771 16.8276 4.65991 16.535C4.22362 16.3896 3.83448 16.2054 3.54415 15.9766C3.25945 15.7522 3 15.426 3 15C3 14.4014 3.49912 14.0003 3.96128 13.7568C4.4657 13.491 5.14802 13.2903 5.91829 13.1627C6.19072 13.1175 6.44815 13.3018 6.49328 13.5742Z" fill="#529df6" stroke="#529df6"/>
</svg>
